<svg width="826" height="1225" xmlns="http://www.w3.org/2000/svg" xmlns:xlink="http://www.w3.org/1999/xlink" xml:space="preserve" overflow="hidden"><defs><clipPath id="clip0"><rect x="1787" y="693" width="826" height="1225"/></clipPath><linearGradient x1="1787.5" y1="1092.5" x2="2612.5" y2="1918.5" gradientUnits="userSpaceOnUse" spreadMethod="reflect" id="fill1"><stop offset="0" stop-color="#EF7A71"/><stop offset="0.49" stop-color="#EC6055"/><stop offset="1" stop-color="#E63022"/></linearGradient></defs><g clip-path="url(#clip0)" transform="translate(-1787 -693)"><path d="M1787 1505.5C1787 1277.68 1971.91 1093 2200 1093 2428.09 1093 2613 1277.68 2613 1505.5 2613 1733.32 2428.09 1918 2200 1918 1971.91 1918 1787 1733.32 1787 1505.5Z" fill="url(#fill1)" fill-rule="evenodd"/><path d="M1946 1179 2200 693 2454 1179Z" fill="#03A688" fill-rule="evenodd"/><path d="M2140 1087.84 2540.73 878.389 2452.83 1179.23Z" fill="#03A688" fill-rule="evenodd"/><path d="M0 313.163 326.14 0 326.14 313.163Z" fill="#03A688" fill-rule="evenodd" transform="matrix(-0.959873 0.280436 0.280436 0.959873 2172.34 786.866)"/></g></svg>